<?xml version="1.0" encoding="UTF-8" standalone="no"?>
<!DOCTYPE svg PUBLIC "-//W3C//DTD SVG 1.1//EN" "http://www.w3.org/Graphics/SVG/1.1/DTD/svg11.dtd">
<svg width="100%" height="100%" viewBox="0 0 24 24" version="1.1" xmlns="http://www.w3.org/2000/svg" xmlns:xlink="http://www.w3.org/1999/xlink" xml:space="preserve" xmlns:serif="http://www.serif.com/" style="fill-rule:evenodd;clip-rule:evenodd;stroke-linejoin:round;stroke-miterlimit:2;">
    <g id="a" transform="matrix(-0.0234375,0,0,0.0234375,24,0)">
        <path d="M380.7,632.3C380.7,632.3 366.4,688.3 330.4,687.8C318.3,687.6 301.4,676.9 283.3,661C249.1,743.7 184.8,900 174.8,929.6C165.9,956.1 187.8,981.6 213,985.6C249.4,991.3 262,967.5 262,967.5C262,967.5 275.6,1008.2 299.6,1007.2C329.5,1006 334.2,974.2 334.2,974.2C334.2,974.2 345.6,998 361,997.4C399.4,996 402.7,894.5 404.8,861.8C408.6,804.3 411.1,726.4 412.6,671.7C403.6,678.4 396.1,682.4 391.3,681.6C375.2,678.9 380.7,632.3 380.7,632.3Z" style="fill:none;fill-rule:nonzero;stroke:black;stroke-width:56.89px;"/>
        <path d="M403.7,75.1C314,74.8 202.2,107.7 203.1,174.7C204.4,262.1 255.3,237.1 244.3,285.9C239.4,307.5 184.4,335.7 178.8,439.7C181.6,440.4 184.1,440.7 186,440.9C200.2,441.6 215.9,414.6 215.9,414.6C215.9,414.6 225.4,452.6 250.9,452.6C276.4,452.6 301.6,426.3 301.6,426.3C301.6,426.3 316.6,456.6 341.2,458.3C361.2,459.9 375.2,450.3 375.2,450.3C375.2,450.3 376,465.3 389.8,464.3C403.7,463.1 427.4,436.5 427.4,436.5C443.9,466.8 459.3,457.5 482.1,441.6C482.1,441.6 488.3,468.2 518.9,465.3C524.9,464.7 531.2,464.3 537.4,463.8L538.3,452.2C540.3,393.4 517.9,322.4 487.9,269.2C466.2,230.5 435.4,185.8 438.3,161.9C441.8,133.6 485,133.5 485,133.5L436.5,117.5L460.5,80.5C441.8,76.769 422.768,74.959 403.7,75.1Z" style="fill:none;fill-rule:nonzero;stroke:black;stroke-width:56.89px;"/>
        <path d="M215.9,414.6C215.9,414.6 200.2,441.6 185.9,440.9C184.1,440.8 181.6,440.4 178.9,439.7L178.6,442.7C176.3,494.7 186.3,543 208.3,574.7C243.4,625.4 300.9,687.3 330.3,687.7C366.4,688.3 380.7,632.3 380.7,632.3C380.7,632.3 375.2,678.9 391.3,681.6C407.3,684.2 453.7,634.9 479.2,602.1C495,581.6 531.2,519.8 537.4,463.8C531.2,464.2 525,464.8 518.9,465.3C488.3,468.3 482.1,441.6 482.1,441.6C459.3,457.6 443.9,466.8 427.4,436.6C427.4,436.6 403.7,463.1 389.8,464.2C376,465.3 375.2,450.4 375.2,450.4C375.2,450.4 361.2,459.9 341.2,458.4C316.7,456.6 301.6,426.3 301.6,426.3C301.6,426.3 276.4,452.6 250.9,452.6C225.4,452.6 215.9,414.6 215.9,414.6Z" style="fill:none;fill-rule:nonzero;stroke:black;stroke-width:56.89px;"/>
        <path d="M215.9,156.1C209.356,146.145 196.9,175.9 179.4,174.7C156.5,173 145.4,176.7 134.6,184.5C109.2,203 113.4,228.3 113.4,228.3C113.4,228.3 131,226.5 153.9,229.3C174.2,232 191.3,233.6 215.2,231.9" style="fill:none;fill-rule:nonzero;stroke:black;stroke-width:56.89px;"/>
    </g>
    <g id="a1" serif:id="a" transform="matrix(0.0234375,0,0,0.0234375,0,0)">
        <path d="M380.7,632.3C380.7,632.3 366.4,688.3 330.4,687.8C318.3,687.6 301.4,676.9 283.3,661C249.1,743.7 184.8,900 174.8,929.6C165.9,956.1 187.8,981.6 213,985.6C249.4,991.3 262,967.5 262,967.5C262,967.5 275.6,1008.2 299.6,1007.2C329.5,1006 334.2,974.2 334.2,974.2C334.2,974.2 345.6,998 361,997.4C399.4,996 402.7,894.5 404.8,861.8C408.6,804.3 411.1,726.4 412.6,671.7C403.6,678.4 396.1,682.4 391.3,681.6C375.2,678.9 380.7,632.3 380.7,632.3Z" style="fill:none;fill-rule:nonzero;stroke:black;stroke-width:56.89px;"/>
        <path d="M403.7,75.1C314,74.8 202.2,107.7 203.1,174.7C204.4,262.1 255.3,237.1 244.3,285.9C239.4,307.5 184.4,335.7 178.8,439.7C181.6,440.4 184.1,440.7 186,440.9C200.2,441.6 215.9,414.6 215.9,414.6C215.9,414.6 225.4,452.6 250.9,452.6C276.4,452.6 301.6,426.3 301.6,426.3C301.6,426.3 316.6,456.6 341.2,458.3C361.2,459.9 375.2,450.3 375.2,450.3C375.2,450.3 376,465.3 389.8,464.3C403.7,463.1 427.4,436.5 427.4,436.5C443.9,466.8 459.3,457.5 482.1,441.6C482.1,441.6 488.3,468.2 518.9,465.3C524.9,464.7 531.2,464.3 537.4,463.8L538.3,452.2C540.3,393.4 517.9,322.4 487.9,269.2C466.2,230.5 435.4,185.8 438.3,161.9C441.8,133.6 485,133.5 485,133.5L436.5,117.5L460.5,80.5C441.8,76.769 422.768,74.959 403.7,75.1Z" style="fill:none;fill-rule:nonzero;stroke:black;stroke-width:56.89px;"/>
        <path d="M215.9,414.6C215.9,414.6 200.2,441.6 185.9,440.9C184.1,440.8 181.6,440.4 178.9,439.7L178.6,442.7C176.3,494.7 186.3,543 208.3,574.7C243.4,625.4 300.9,687.3 330.3,687.7C366.4,688.3 380.7,632.3 380.7,632.3C380.7,632.3 375.2,678.9 391.3,681.6C407.3,684.2 453.7,634.9 479.2,602.1C495,581.6 531.2,519.8 537.4,463.8C531.2,464.2 525,464.8 518.9,465.3C488.3,468.3 482.1,441.6 482.1,441.6C459.3,457.6 443.9,466.8 427.4,436.6C427.4,436.6 403.7,463.1 389.8,464.2C376,465.3 375.2,450.4 375.2,450.4C375.2,450.4 361.2,459.9 341.2,458.4C316.7,456.6 301.6,426.3 301.6,426.3C301.6,426.3 276.4,452.6 250.9,452.6C225.4,452.6 215.9,414.6 215.9,414.6Z" style="fill:none;fill-rule:nonzero;stroke:black;stroke-width:56.89px;"/>
        <path d="M215.9,156.1C209.356,146.145 196.9,175.9 179.4,174.7C156.5,173 145.4,176.7 134.6,184.5C109.2,203 113.4,228.3 113.4,228.3C113.4,228.3 131,226.5 153.9,229.3C174.2,232 191.3,233.6 215.2,231.9" style="fill:none;fill-rule:nonzero;stroke:black;stroke-width:56.89px;"/>
    </g>
</svg>
